<?xml version="1.0" encoding="UTF-8" standalone="no"?><!DOCTYPE svg PUBLIC "-//W3C//DTD SVG 1.1//EN" "http://www.w3.org/Graphics/SVG/1.1/DTD/svg11.dtd"><svg width="100%" height="100%" viewBox="0 0 842 596" version="1.1" xmlns="http://www.w3.org/2000/svg" xmlns:xlink="http://www.w3.org/1999/xlink" xml:space="preserve" xmlns:serif="http://www.serif.com/" style="fill-rule:evenodd;clip-rule:evenodd;stroke-linejoin:round;stroke-miterlimit:2;"><path d="M671.19,388.286l-500.49,0c0,-144.776 112.131,-262.316 250.245,-262.316c138.114,0 250.245,117.54 250.245,262.316Z" style="fill:#ffe37e;"/><path d="M288.616,314.427c2.037,-13.832 -7.55,-26.63 -21.397,-28.562l-7.666,-1.07c-13.846,-1.932 -26.742,7.729 -28.779,21.56l-9.134,62.011c-2.037,13.832 7.551,26.63 21.397,28.562l7.666,1.07c13.846,1.932 26.742,-7.729 28.779,-21.561l9.134,-62.01Z" style="fill:#777;"/><rect x="170.7" y="387.846" width="500.491" height="10.404" style="fill:#777;"/><path d="M416.025,302.855c-0.781,-10.955 -10.312,-19.248 -21.27,-18.508l-6.067,0.41c-10.958,0.74 -19.22,10.236 -18.439,21.191l4.869,68.276c0.781,10.955 10.312,19.248 21.27,18.508l6.067,-0.41c10.958,-0.74 19.22,-10.235 18.439,-21.191l-4.869,-68.276Z" style="fill:#777;"/><path d="M373.668,315.846c-0.817,-12.328 -11.491,-21.709 -23.821,-20.936l-6.827,0.429c-12.331,0.773 -21.679,11.41 -20.862,23.738l3.853,58.192c0.816,12.328 11.49,21.709 23.821,20.935l6.827,-0.428c12.33,-0.774 21.679,-11.41 20.862,-23.738l-3.853,-58.192Z" style="fill:#777;"/><path d="M327.937,329.629c0.108,-10.87 -8.63,-19.779 -19.5,-19.882l-6.018,-0.057c-10.871,-0.102 -19.784,8.64 -19.893,19.51l-0.489,49.111c-0.108,10.87 8.629,19.779 19.5,19.881l6.018,0.057c10.871,0.103 19.784,-8.639 19.892,-19.51l0.49,-49.11Z" style="fill:#777;"/><ellipse cx="265.693" cy="279.302" rx="13.391" ry="15.245" style="fill:#777;"/><ellipse cx="304.987" cy="299.634" rx="13.391" ry="15.245" style="fill:#777;"/><path d="M332.876,269.616c7.209,-1.585 14.608,3.791 16.513,11.999c1.904,8.207 -2.402,16.157 -9.611,17.742c-7.209,1.585 -14.608,-3.792 -16.513,-11.999c-1.904,-8.208 2.402,-16.158 9.611,-17.742Z" style="fill:#777;"/><ellipse cx="388.691" cy="278.139" rx="13.391" ry="15.245" style="fill:#777;"/><rect x="246.681" y="330.668" width="158.705" height="62.111" style="fill:#777;"/><path d="M247.983,452.396l-3.955,0l0,-26.438l3.955,0l0,1.863c1.559,-1.558 3.328,-2.337 5.309,-2.337c2.355,0 4.295,0.867 5.818,2.601c1.547,1.723 2.32,3.897 2.32,6.522c0,2.566 -0.767,4.705 -2.302,6.416c-1.524,1.699 -3.446,2.548 -5.766,2.548c-2.004,0 -3.797,-0.802 -5.379,-2.408l0,11.233Zm9.404,-17.772c0,-1.64 -0.445,-2.976 -1.335,-4.008c-0.903,-1.043 -2.04,-1.564 -3.411,-1.564c-1.453,0 -2.63,0.504 -3.533,1.512c-0.902,1.007 -1.353,2.332 -1.353,3.972c0,1.606 0.451,2.93 1.353,3.973c0.891,1.019 2.063,1.529 3.516,1.529c1.371,0 2.502,-0.515 3.392,-1.547c0.914,-1.031 1.371,-2.32 1.371,-3.867Z" style="fill-rule:nonzero;"/><path d="M283.006,435.45l-12.27,0c0.106,1.407 0.563,2.526 1.371,3.358c0.809,0.82 1.846,1.23 3.112,1.23c0.984,0 1.799,-0.234 2.443,-0.703c0.633,-0.469 1.354,-1.336 2.162,-2.601l3.34,1.863c-0.516,0.879 -1.061,1.632 -1.635,2.259c-0.574,0.627 -1.189,1.142 -1.845,1.547c-0.657,0.404 -1.366,0.7 -2.127,0.887c-0.762,0.188 -1.588,0.281 -2.479,0.281c-2.555,0 -4.605,-0.82 -6.152,-2.46c-1.547,-1.653 -2.321,-3.844 -2.321,-6.575c0,-2.707 0.75,-4.898 2.25,-6.574c1.512,-1.652 3.516,-2.478 6.012,-2.478c2.52,0 4.512,0.802 5.977,2.408c1.453,1.594 2.179,3.803 2.179,6.627l-0.017,0.931Zm-4.061,-3.234c-0.551,-2.109 -1.881,-3.164 -3.99,-3.164c-0.48,0 -0.932,0.073 -1.353,0.22c-0.422,0.146 -0.806,0.357 -1.152,0.632c-0.346,0.276 -0.641,0.607 -0.888,0.994c-0.246,0.386 -0.433,0.826 -0.562,1.318l7.945,0Z" style="fill-rule:nonzero;"/><path d="M289.13,425.958l3.955,0l0,1.529c0.727,-0.761 1.371,-1.283 1.934,-1.564c0.574,-0.293 1.254,-0.439 2.039,-0.439c1.043,0 2.133,0.339 3.269,1.019l-1.81,3.621c-0.75,-0.539 -1.483,-0.808 -2.198,-0.808c-2.156,0 -3.234,1.629 -3.234,4.886l0,8.877l-3.955,0l0,-17.121Z" style="fill-rule:nonzero;"/><path d="M314.344,428.876l-3.269,1.74c-0.516,-1.054 -1.155,-1.582 -1.916,-1.582c-0.364,0 -0.674,0.12 -0.932,0.361c-0.258,0.24 -0.387,0.548 -0.387,0.923c0,0.656 0.762,1.306 2.285,1.951c2.098,0.902 3.51,1.734 4.237,2.496c0.726,0.762 1.09,1.787 1.09,3.076c0,1.652 -0.61,3.035 -1.829,4.148c-1.183,1.055 -2.613,1.582 -4.289,1.582c-2.871,0 -4.904,-1.4 -6.099,-4.201l3.375,-1.564c0.468,0.82 0.826,1.342 1.072,1.564c0.48,0.446 1.055,0.668 1.723,0.668c1.336,0 2.004,-0.609 2.004,-1.828c0,-0.703 -0.516,-1.359 -1.547,-1.969c-0.399,-0.199 -0.797,-0.392 -1.196,-0.58c-0.398,-0.187 -0.802,-0.381 -1.213,-0.58c-1.148,-0.562 -1.957,-1.125 -2.425,-1.687c-0.598,-0.715 -0.897,-1.635 -0.897,-2.76c0,-1.488 0.51,-2.719 1.53,-3.691c1.042,-0.973 2.308,-1.459 3.796,-1.459c2.192,0 3.821,1.13 4.887,3.392Z" style="fill-rule:nonzero;"/><path d="M319.994,434.396c0,-2.473 0.884,-4.576 2.654,-6.311c1.77,-1.734 3.926,-2.601 6.469,-2.601c2.554,0 4.722,0.873 6.504,2.619c1.757,1.746 2.636,3.89 2.636,6.433c0,2.567 -0.884,4.717 -2.654,6.451c-1.781,1.723 -3.967,2.584 -6.557,2.584c-2.566,0 -4.716,-0.878 -6.451,-2.636c-1.734,-1.735 -2.601,-3.914 -2.601,-6.539Zm4.043,0.07c0,1.711 0.457,3.064 1.371,4.061c0.937,1.007 2.174,1.511 3.709,1.511c1.547,0 2.783,-0.498 3.709,-1.494c0.926,-0.996 1.388,-2.326 1.388,-3.99c0,-1.664 -0.462,-2.994 -1.388,-3.99c-0.938,-1.008 -2.174,-1.512 -3.709,-1.512c-1.512,0 -2.737,0.504 -3.674,1.512c-0.938,1.007 -1.406,2.308 -1.406,3.902Z" style="fill-rule:nonzero;"/><path d="M344.241,425.958l3.973,0l0,1.582c1.382,-1.371 2.941,-2.056 4.675,-2.056c1.993,0 3.545,0.627 4.659,1.88c0.961,1.067 1.441,2.807 1.441,5.221l0,10.494l-3.973,0l0,-9.562c0,-1.688 -0.234,-2.854 -0.703,-3.498c-0.457,-0.657 -1.289,-0.985 -2.496,-0.985c-1.312,0 -2.244,0.434 -2.795,1.301c-0.539,0.856 -0.808,2.35 -0.808,4.483l0,8.261l-3.973,0l0,-17.121Z" style="fill-rule:nonzero;"/><path d="M392.015,426.696l0,5.256c-0.903,-1.101 -1.711,-1.857 -2.426,-2.267c-0.703,-0.422 -1.529,-0.633 -2.478,-0.633c-1.489,0 -2.725,0.521 -3.709,1.564c-0.985,1.043 -1.477,2.35 -1.477,3.92c0,1.606 0.475,2.924 1.424,3.955c0.961,1.032 2.185,1.547 3.674,1.547c0.949,0 1.787,-0.205 2.513,-0.615c0.703,-0.398 1.53,-1.172 2.479,-2.32l0,5.22c-1.606,0.832 -3.211,1.248 -4.817,1.248c-2.648,0 -4.863,-0.855 -6.644,-2.566c-1.781,-1.723 -2.672,-3.861 -2.672,-6.416c0,-2.555 0.902,-4.711 2.707,-6.469c1.805,-1.758 4.02,-2.636 6.645,-2.636c1.687,0 3.281,0.404 4.781,1.212Z" style="fill-rule:nonzero;"/><path d="M413.239,435.45l-12.27,0c0.106,1.407 0.563,2.526 1.371,3.358c0.809,0.82 1.846,1.23 3.112,1.23c0.984,0 1.798,-0.234 2.443,-0.703c0.633,-0.469 1.353,-1.336 2.162,-2.601l3.34,1.863c-0.516,0.879 -1.061,1.632 -1.635,2.259c-0.574,0.627 -1.189,1.142 -1.846,1.547c-0.656,0.404 -1.365,0.7 -2.127,0.887c-0.761,0.188 -1.587,0.281 -2.478,0.281c-2.555,0 -4.606,-0.82 -6.152,-2.46c-1.547,-1.653 -2.321,-3.844 -2.321,-6.575c0,-2.707 0.75,-4.898 2.25,-6.574c1.512,-1.652 3.516,-2.478 6.012,-2.478c2.519,0 4.512,0.802 5.977,2.408c1.453,1.594 2.179,3.803 2.179,6.627l-0.017,0.931Zm-4.061,-3.234c-0.551,-2.109 -1.881,-3.164 -3.99,-3.164c-0.481,0 -0.932,0.073 -1.354,0.22c-0.422,0.146 -0.805,0.357 -1.151,0.632c-0.346,0.276 -0.642,0.607 -0.888,0.994c-0.246,0.386 -0.433,0.826 -0.562,1.318l7.945,0Z" style="fill-rule:nonzero;"/><path d="M419.363,425.958l3.973,0l0,1.582c1.382,-1.371 2.941,-2.056 4.675,-2.056c1.992,0 3.545,0.627 4.658,1.88c0.961,1.067 1.442,2.807 1.442,5.221l0,10.494l-3.973,0l0,-9.562c0,-1.688 -0.234,-2.854 -0.703,-3.498c-0.457,-0.657 -1.289,-0.985 -2.496,-0.985c-1.312,0 -2.244,0.434 -2.795,1.301c-0.539,0.856 -0.808,2.35 -0.808,4.483l0,8.261l-3.973,0l0,-17.121Z" style="fill-rule:nonzero;"/><path d="M444.981,429.65l0,13.429l-3.955,0l0,-13.429l-1.687,0l0,-3.692l1.687,0l0,-6.275l3.955,0l0,6.275l3.076,0l0,3.692l-3.076,0Z" style="fill-rule:nonzero;"/><path d="M452.547,425.958l3.955,0l0,1.529c0.726,-0.761 1.371,-1.283 1.934,-1.564c0.574,-0.293 1.253,-0.439 2.039,-0.439c1.043,0 2.132,0.339 3.269,1.019l-1.81,3.621c-0.75,-0.539 -1.483,-0.808 -2.198,-0.808c-2.156,0 -3.234,1.629 -3.234,4.886l0,8.877l-3.955,0l0,-17.121Z" style="fill-rule:nonzero;"/><path d="M483.157,435.45l-12.269,0c0.105,1.407 0.562,2.526 1.371,3.358c0.809,0.82 1.846,1.23 3.111,1.23c0.985,0 1.799,-0.234 2.444,-0.703c0.632,-0.469 1.353,-1.336 2.162,-2.601l3.34,1.863c-0.516,0.879 -1.061,1.632 -1.635,2.259c-0.574,0.627 -1.19,1.142 -1.846,1.547c-0.656,0.404 -1.365,0.7 -2.127,0.887c-0.762,0.188 -1.588,0.281 -2.478,0.281c-2.555,0 -4.606,-0.82 -6.153,-2.46c-1.547,-1.653 -2.32,-3.844 -2.32,-6.575c0,-2.707 0.75,-4.898 2.25,-6.574c1.512,-1.652 3.516,-2.478 6.012,-2.478c2.519,0 4.511,0.802 5.976,2.408c1.453,1.594 2.18,3.803 2.18,6.627l-0.018,0.931Zm-4.06,-3.234c-0.551,-2.109 -1.881,-3.164 -3.99,-3.164c-0.481,0 -0.932,0.073 -1.354,0.22c-0.422,0.146 -0.806,0.357 -1.151,0.632c-0.346,0.276 -0.642,0.607 -0.888,0.994c-0.246,0.386 -0.434,0.826 -0.562,1.318l7.945,0Z" style="fill-rule:nonzero;"/><path d="M501.903,413.39l3.972,0l0,29.689l-3.972,0l0,-1.793c-1.559,1.524 -3.323,2.285 -5.291,2.285c-2.344,0 -4.289,-0.855 -5.836,-2.566c-1.535,-1.746 -2.303,-3.926 -2.303,-6.539c0,-2.555 0.768,-4.688 2.303,-6.398c1.523,-1.723 3.439,-2.584 5.748,-2.584c2.004,0 3.797,0.82 5.379,2.461l0,-14.555Zm-9.387,21.076c0,1.641 0.439,2.977 1.318,4.008c0.903,1.043 2.039,1.564 3.41,1.564c1.465,0 2.649,-0.504 3.551,-1.511c0.903,-1.043 1.354,-2.368 1.354,-3.973c0,-1.606 -0.451,-2.93 -1.354,-3.973c-0.902,-1.019 -2.074,-1.529 -3.515,-1.529c-1.36,0 -2.496,0.516 -3.411,1.547c-0.902,1.043 -1.353,2.332 -1.353,3.867Z" style="fill-rule:nonzero;"/><path d="M538.901,426.696l0,5.256c-0.902,-1.101 -1.711,-1.857 -2.426,-2.267c-0.703,-0.422 -1.529,-0.633 -2.478,-0.633c-1.488,0 -2.725,0.521 -3.709,1.564c-0.985,1.043 -1.477,2.35 -1.477,3.92c0,1.606 0.475,2.924 1.424,3.955c0.961,1.032 2.186,1.547 3.674,1.547c0.949,0 1.787,-0.205 2.514,-0.615c0.703,-0.398 1.529,-1.172 2.478,-2.32l0,5.22c-1.605,0.832 -3.211,1.248 -4.816,1.248c-2.649,0 -4.864,-0.855 -6.645,-2.566c-1.781,-1.723 -2.672,-3.861 -2.672,-6.416c0,-2.555 0.903,-4.711 2.707,-6.469c1.805,-1.758 4.02,-2.636 6.645,-2.636c1.687,0 3.281,0.404 4.781,1.212Z" style="fill-rule:nonzero;"/><path d="M557.154,425.958l3.973,0l0,17.121l-3.973,0l0,-1.793c-1.629,1.524 -3.381,2.285 -5.256,2.285c-2.367,0 -4.324,-0.855 -5.871,-2.566c-1.535,-1.746 -2.302,-3.926 -2.302,-6.539c0,-2.566 0.767,-4.705 2.302,-6.416c1.535,-1.711 3.457,-2.566 5.766,-2.566c1.992,0 3.779,0.82 5.361,2.461l0,-1.987Zm-9.386,8.508c0,1.641 0.439,2.977 1.318,4.008c0.902,1.043 2.039,1.564 3.41,1.564c1.465,0 2.648,-0.504 3.551,-1.511c0.902,-1.043 1.353,-2.368 1.353,-3.973c0,-1.606 -0.451,-2.93 -1.353,-3.973c-0.903,-1.019 -2.074,-1.529 -3.516,-1.529c-1.359,0 -2.496,0.516 -3.41,1.547c-0.902,1.043 -1.353,2.332 -1.353,3.867Z" style="fill-rule:nonzero;"/><path d="M567.919,425.958l3.955,0l0,1.529c0.727,-0.761 1.371,-1.283 1.934,-1.564c0.574,-0.293 1.254,-0.439 2.039,-0.439c1.043,0 2.133,0.339 3.269,1.019l-1.81,3.621c-0.75,-0.539 -1.483,-0.808 -2.197,-0.808c-2.157,0 -3.235,1.629 -3.235,4.886l0,8.877l-3.955,0l0,-17.121Z" style="fill-rule:nonzero;"/><path d="M598.53,435.45l-12.27,0c0.106,1.407 0.563,2.526 1.371,3.358c0.809,0.82 1.846,1.23 3.112,1.23c0.984,0 1.798,-0.234 2.443,-0.703c0.633,-0.469 1.353,-1.336 2.162,-2.601l3.34,1.863c-0.516,0.879 -1.061,1.632 -1.635,2.259c-0.574,0.627 -1.189,1.142 -1.846,1.547c-0.656,0.404 -1.365,0.7 -2.127,0.887c-0.761,0.188 -1.587,0.281 -2.478,0.281c-2.555,0 -4.606,-0.82 -6.152,-2.46c-1.547,-1.653 -2.321,-3.844 -2.321,-6.575c0,-2.707 0.75,-4.898 2.25,-6.574c1.512,-1.652 3.516,-2.478 6.012,-2.478c2.52,0 4.512,0.802 5.977,2.408c1.453,1.594 2.179,3.803 2.179,6.627l-0.017,0.931Zm-4.061,-3.234c-0.551,-2.109 -1.881,-3.164 -3.99,-3.164c-0.481,0 -0.932,0.073 -1.354,0.22c-0.422,0.146 -0.805,0.357 -1.151,0.632c-0.346,0.276 -0.642,0.607 -0.888,0.994c-0.246,0.386 -0.433,0.826 -0.562,1.318l7.945,0Z" style="fill-rule:nonzero;"/></svg>