<?xml version="1.0" encoding="UTF-8" standalone="no"?>
<!DOCTYPE svg PUBLIC "-//W3C//DTD SVG 1.1//EN" "http://www.w3.org/Graphics/SVG/1.1/DTD/svg11.dtd">
<svg width="100%" height="100%" viewBox="0 0 1024 1024" version="1.1" xmlns="http://www.w3.org/2000/svg" xmlns:xlink="http://www.w3.org/1999/xlink" xml:space="preserve" xmlns:serif="http://www.serif.com/" style="fill-rule:evenodd;clip-rule:evenodd;stroke-linejoin:round;stroke-miterlimit:2;">
    <g transform="matrix(0.786026,0,0,0.786026,17,0)">
        <circle cx="512" cy="512" r="512" style="fill:rgb(210,7,56);"/>
    </g>
    <g transform="matrix(0.891783,0,0,0.891783,55.4071,54.5049)">
        <circle cx="512" cy="512" r="512" style="fill:rgb(0,136,91);"/>
        <path d="M512,0C794.58,0 1024,229.42 1024,512C1024,794.58 794.58,1024 512,1024C229.42,1024 0,794.58 0,512C0,229.42 229.42,0 512,0ZM512,33.64C776.014,33.64 990.36,247.986 990.36,512C990.36,776.014 776.014,990.36 512,990.36C247.986,990.36 33.64,776.014 33.64,512C33.64,247.986 247.986,33.64 512,33.64Z" style="fill:white;"/>
    </g>
</svg>
