<?xml version="1.0" encoding="UTF-8" standalone="no"?>
<!DOCTYPE svg PUBLIC "-//W3C//DTD SVG 1.1//EN" "http://www.w3.org/Graphics/SVG/1.1/DTD/svg11.dtd">
<svg width="100%" height="100%" viewBox="0 0 800 250" version="1.1" xmlns="http://www.w3.org/2000/svg" xmlns:xlink="http://www.w3.org/1999/xlink" xml:space="preserve" xmlns:serif="http://www.serif.com/" style="fill-rule:evenodd;clip-rule:evenodd;stroke-linejoin:round;stroke-miterlimit:2;">
    <g id="Care-plan-group" serif:id="Care plan group" transform="matrix(1,0,0,1,6.03526,-9.06569)">
        <g transform="matrix(-8.07138e-17,-0.19334,0.398039,-1.76482e-16,220.801,226.403)">
            <path d="M222.148,505.08L222.148,493.073L359.114,493.073L359.114,469.059L420.913,499.076L359.114,529.094L359.114,505.08L222.148,505.08Z" style="fill-opacity:0.4;"/>
        </g>
        <g transform="matrix(-5.81714e-17,-0.134461,0.398039,-1.69146e-16,467.948,201.62)">
            <path d="M222.148,505.08L222.148,493.073L332.052,493.073L332.052,469.059L420.913,499.076L332.052,529.094L332.052,505.08L222.148,505.08Z" style="fill-opacity:0.4;"/>
        </g>
        <g transform="matrix(1,0,0,1,0,-4)">
            <g transform="matrix(1,0,0,1,173.803,-45.1758)">
                <rect x="154.49" y="81.17" width="431.102" height="58.488" style="fill:rgb(0,136,91);"/>
            </g>
            <g transform="matrix(1,0,0,1,304.904,-117.85)">
                <text x="168.036px" y="191.309px" style="font-family:'Montserrat-Regular', 'Montserrat';font-size:30px;fill:white;">C<tspan x="189.366px 207.066px 218.706px " y="191.309px 191.309px 191.309px ">are</tspan> plan</text>
            </g>
        </g>
        <g transform="matrix(0.422915,0,0,0.704416,262.957,39.3052)">
            <rect x="154.49" y="81.17" width="431.102" height="58.488" style="fill:white;"/>
            <path d="M585.592,81.17L154.49,81.17L154.49,139.659L585.592,139.659L585.592,81.17ZM159.219,84.01L159.219,136.819L580.863,136.819L580.863,84.01L159.219,84.01Z" style="fill:rgb(0,136,91);"/>
        </g>
        <g transform="matrix(0.430506,0,0,0.704416,507.295,39.3052)">
            <rect x="154.49" y="81.17" width="431.102" height="58.488" style="fill:white;"/>
            <path d="M585.592,81.17L154.49,81.17L154.49,139.659L585.592,139.659L585.592,81.17ZM159.135,84.01L159.135,136.819L580.946,136.819L580.946,84.01L159.135,84.01Z" style="fill:rgb(0,136,91);"/>
        </g>
        <g transform="matrix(1,0,0,1,138.288,-104.561)">
            <text x="222.971px" y="228.268px" style="font-family:'Montserrat-Regular', 'Montserrat';font-size:18px;">Clinical task<tspan x="330.197px " y="228.268px ">s</tspan></text>
        </g>
        <g transform="matrix(1,0,0,1,-6.03563,-111.748)">
            <text x="328.307px" y="317.749px" style="font-family:'Montserrat-Regular', 'Montserrat';font-size:18px;">Medical pr<tspan x="422.915px 434.201px 440.141px " y="317.749px 317.749px 317.749px ">ofe</tspan>ssionals</text>
        </g>
        <g transform="matrix(1,0,0,1,291.072,-164.858)">
            <text x="338.366px" y="354.514px" style="font-family:'Montserrat-Regular', 'Montserrat';font-size:18px;">P<tspan x="351.02px " y="354.514px ">a</tspan>tients</text>
            <text x="370.487px" y="372.514px" style="font-family:'Montserrat-Regular', 'Montserrat';font-size:18px;">+</text>
            <text x="314.759px" y="390.514px" style="font-family:'Montserrat-Regular', 'Montserrat';font-size:18px;">their r<tspan x="368.921px " y="390.514px ">e</tspan>lativ<tspan x="416.891px " y="390.514px ">e</tspan>s</text>
        </g>
        <g transform="matrix(1,0,0,1,598.793,123.707)">
            <text x="0px" y="0px" style="font-family:'Montserrat-Regular', 'Montserrat';font-size:18px;">E<tspan x="11.844px 21.33px 32.202px 39.69px 49.176px 61.38px 71.82px " y="0px 0px 0px 0px 0px 0px 0px ">veryday</tspan> goals</text>
        </g>
    </g>
    <g id="Key-routines-group" serif:id="Key routines group" transform="matrix(1,0,0,1,-21.3066,-231.355)">
        <g transform="matrix(1,0,0,1,23.3291,71.4085)">
            <text x="32.808px" y="203.664px" style="font-family:'Montserrat-Regular', 'Montserrat';font-size:30px;fill:rgb(210,7,56);">3 k<tspan x="74.988px 92.808px " y="203.664px 203.664px ">ey</tspan> r<tspan x="128.568px " y="203.664px ">o</tspan>utines</text>
        </g>
        <g transform="matrix(1,0,0,1,55.5729,27.7071)">
            <text x="27.471px" y="281.46px" style="font-family:'Montserrat-Regular', 'Montserrat';font-size:18px;fill:rgb(210,7,56);">P<tspan x="40.125px " y="281.46px ">a</tspan>tient nar<tspan x="127.857px 134.913px " y="281.46px 281.46px ">ra</tspan>tiv<tspan x="167.169px " y="281.46px ">e</tspan></text>
        </g>
        <g transform="matrix(1,0,0,1,76.3269,55.6812)">
            <text x="27.471px" y="281.46px" style="font-family:'Montserrat-Regular', 'Montserrat';font-size:18px;fill:rgb(210,7,56);">P<tspan x="40.125px 50.745px 58.233px " y="281.46px 281.46px 281.46px ">art</tspan>nership</text>
        </g>
        <g transform="matrix(1,0,0,1,60.1539,85.4712)">
            <text x="27.471px" y="281.46px" style="font-family:'Montserrat-Regular', 'Montserrat';font-size:18px;fill:rgb(210,7,56);">Documentation</text>
        </g>
    </g>
    <g transform="matrix(0.215186,0,0,1.04804,220.156,-457.457)">
        <path d="M222.148,509.583L222.148,488.57L274.714,488.57L274.714,469.059L420.913,499.076L274.714,529.094L274.714,509.583L222.148,509.583Z" style="fill-opacity:0.4;"/>
    </g>
</svg>
