<?xml version="1.0" standalone="no"?>
<!DOCTYPE svg PUBLIC "-//W3C//DTD SVG 20010904//EN"
 "http://www.w3.org/TR/2001/REC-SVG-20010904/DTD/svg10.dtd">
<svg version="1.0" xmlns="http://www.w3.org/2000/svg"
 width="700.000000pt" height="700.000000pt" viewBox="0 0 700.000000 700.000000"
 preserveAspectRatio="xMidYMid meet">
<metadata>
Created by potrace 1.11, written by Peter Selinger 2001-2013
</metadata>
<g transform="translate(0.000000,700.000000) scale(0.100000,-0.100000)"
fill="#000000" stroke="none">
<path d="M2880 6963 c-616 -59 -1113 -248 -1582 -605 -147 -111 -393 -352
-508 -498 -349 -440 -559 -948 -625 -1510 -20 -164 -19 -498 0 -664 27 -233
83 -468 160 -680 34 -95 126 -309 130 -304 1 2 -6 57 -16 123 -119 802 65
1621 516 2300 539 811 1392 1336 2365 1457 164 20 633 17 800 -5 218 -30 442
-81 619 -142 41 -14 76 -23 79 -20 2 2 -41 34 -97 70 -421 273 -875 430 -1371
475 -106 9 -387 11 -470 3z"/>
<path d="M3357 6165 c-538 -68 -1032 -275 -1457 -614 -126 -100 -347 -321
-448 -449 -599 -755 -784 -1739 -501 -2657 245 -794 851 -1462 1624 -1793
1508 -644 3242 101 3828 1645 136 357 197 761 176 1163 -37 709 -337 1379
-841 1881 -440 439 -981 712 -1615 815 -136 22 -617 28 -766 9z"/>
</g>
</svg>
